<svg width="50" height="50" viewBox="0 0 50 50" fill="none" xmlns="http://www.w3.org/2000/svg">
<g clip-path="url(#clip0)">
<path d="M47.8435 33.9921C48.8682 32.6851 49.3596 31.284 49.2968 29.8411C49.2341 28.2518 48.5231 27.0075 47.9376 26.2442C48.6172 24.5504 48.8786 21.8841 46.6097 19.8139C44.9472 18.2978 42.1241 17.6182 38.2136 17.8064C35.4637 17.9318 33.1634 18.4442 33.0693 18.4651H33.0589C32.5361 18.5592 31.9819 18.6742 31.4173 18.7997C31.3755 18.1305 31.4905 16.468 32.7243 12.7248C34.1881 8.2706 34.1045 4.86198 32.4524 2.5826C30.7168 0.188206 27.946 0 27.1304 0C26.3462 0 25.6247 0.324132 25.1124 0.920117C23.9518 2.26893 24.0877 4.75742 24.2341 5.90757C22.8539 9.60895 18.9853 18.6847 15.7126 21.2045C15.6498 21.2463 15.5976 21.2986 15.5453 21.3509C14.5833 22.3651 13.9351 23.463 13.4959 24.4249C12.879 24.0903 12.1785 23.9021 11.4257 23.9021H5.04758C2.64273 23.9021 0.697937 25.8574 0.697937 28.2518V45.2426C0.697937 47.6474 2.65319 49.5922 5.04758 49.5922H11.4257C12.3562 49.5922 13.2241 49.2995 13.9351 48.7976L16.3922 49.0903C16.7686 49.1426 23.4604 49.9895 30.3299 49.8536C31.5741 49.9477 32.7452 50 33.8326 50C35.7042 50 37.3353 49.8536 38.6946 49.5609C41.8941 48.8812 44.0794 47.522 45.1877 45.5249C46.0346 43.9983 46.0346 42.4822 45.8987 41.5203C47.9794 39.6382 48.3454 37.5575 48.2722 36.0937C48.2303 35.2468 48.0421 34.5253 47.8435 33.9921Z" fill="#2E2F22"/>
</g>
<defs>
<clipPath id="clip0">
<rect width="50" height="50" fill="white"/>
</clipPath>
</defs>
</svg>
